<mxfile host="app.diagrams.net" modified="2024-03-23T02:39:46.067Z" agent="Mozilla/5.0 (Windows NT 10.0; Win64; x64) AppleWebKit/537.36 (KHTML, like Gecko) Chrome/122.0.0.0 Safari/537.36" version="24.0.7" etag="5OR2r5TOSX5nQp0wJCVs" type="github">
  <diagram name="第 1 页" id="qq2y-Gj2-u5UFIAjYjN8">
    <mxGraphModel>
      <root>
        <mxCell id="0" />
        <mxCell id="1" parent="0" />
      </root>
    </mxGraphModel>
  </diagram>
</mxfile>
